<svg xmlns="http://www.w3.org/2000/svg" width="1432.276" height="2677.883" viewBox="0 0 1432.276 2677.883">
  <g id="Group_9" data-name="Group 9" transform="translate(148.226 99.101)">
    <path id="Path_19" data-name="Path 19" d="M1955,2172.2s40.6-87.272,96.838-30.162,26.913,86.8-6.733,165.758-13.746,281.485,114.818,201.157,118.2-203.139,179.112-219.2,129.89,163.9,86.814,235.53,22.872,73.813,22.872,73.813" transform="translate(-1672.569 -371.381) rotate(9)" fill="none"/>
    <path id="Path_18" data-name="Path 18" d="M2609.949-32.7s-38.462,40.487-21.909,82.863c9.875,25.281,64.743,59.278,89.918,62.553,66.6,8.665,158.869-34.9,199.306-54.233S2951.433.6,2994.314,12.505s66.773,60.9,39.476,107.566.8,92.089,35.636,109.073,92.691-18.858,92.691-18.858" transform="matrix(0.719, -0.695, 0.695, 0.719, -1182.564, 3669.289)" fill="none"/>
    <g id="Ellipse_4" data-name="Ellipse 4" transform="translate(888 889)" fill="none" stroke="#9c45eb" stroke-width="2">
      <circle cx="14.5" cy="14.5" r="14.5" stroke="none"/>
      <circle cx="14.5" cy="14.5" r="13.5" fill="none"/>
    </g>
    <path id="Path_8" data-name="Path 8" d="M2941.677,838.952c-132.957-.151-133.126,0-133.126,0l59.038,62.29Z" transform="matrix(0.934, -0.358, 0.358, 0.934, -2291.985, 306.42)" fill="none" stroke="#9c45eb" stroke-width="2"/>
    <path id="Path_6" data-name="Path 6" d="M2609.949-32.7s-38.462,40.487-21.909,82.863c9.875,25.281,64.743,59.278,89.918,62.553,66.6,8.665,158.869-34.9,199.306-54.233S2951.433.6,2994.314,12.505s66.773,60.9,39.476,107.566.8,92.089,35.636,109.073,92.691-18.858,92.691-18.858" transform="matrix(0.391, -0.921, 0.921, 0.391, -345.167, 2825.175)" fill="none" stroke="#ffb100" stroke-width="2"/>
    <path id="Path_7" data-name="Path 7" d="M2609.949-32.7s-38.462,40.487-21.909,82.863c9.875,25.281,64.743,59.278,89.918,62.553,66.6,8.665,158.869-34.9,199.306-54.233S2951.433.6,2994.314,12.505s66.773,60.9,39.476,107.566.8,92.089,35.636,109.073,92.691-18.858,92.691-18.858" transform="translate(-1750.164 -739.275) rotate(17)" fill="none" stroke="#48ff05" stroke-width="2"/>
    <path id="Path_12" data-name="Path 12" d="M2894.04,838.928c-85.38-.1-85.489,0-85.489,0l37.912,40Z" transform="translate(-2680.848 1343.782) rotate(-26)" fill="none" stroke="#45eb49" stroke-width="2"/>
    <path id="Path_14" data-name="Path 14" d="M0,52.411c69.953.127,70.042,0,70.042,0L38.98,0Z" transform="matrix(0.921, -0.391, 0.391, 0.921, 1020.464, 792.587)" fill="none" stroke="#ffb100" stroke-width="2"/>
    <g id="Ellipse_5" data-name="Ellipse 5" transform="translate(1038 934)" fill="none" stroke="#33ffed" stroke-width="2">
      <circle cx="30.5" cy="30.5" r="30.5" stroke="none"/>
      <circle cx="30.5" cy="30.5" r="29.5" fill="none"/>
    </g>
    <g id="Ellipse_8" data-name="Ellipse 8" transform="translate(204 924)" fill="none" stroke="#ffb100" stroke-width="2">
      <circle cx="15" cy="15" r="15" stroke="none"/>
      <circle cx="15" cy="15" r="14" fill="none"/>
    </g>
    <g id="Ellipse_9" data-name="Ellipse 9" transform="translate(140 785)" fill="none" stroke="#33ffed" stroke-width="2">
      <circle cx="9" cy="9" r="9" stroke="none"/>
      <circle cx="9" cy="9" r="8" fill="none"/>
    </g>
    <path id="Path_21" data-name="Path 21" d="M2846.572,838.924c-37.973-.088-38.021,0-38.021,0l16.861,36.234Z" transform="translate(-1323.694 -1702.7) rotate(45)" fill="none" stroke="#9c45eb" stroke-width="2"/>
    <g id="Ellipse_1" data-name="Ellipse 1" transform="translate(1113 366)" fill="none" stroke="#33ffed" stroke-width="2">
      <circle cx="30.5" cy="30.5" r="30.5" stroke="none"/>
      <circle cx="30.5" cy="30.5" r="29.5" fill="none"/>
    </g>
  </g>
</svg>
